<svg id="Layer_1" data-name="Layer 1" xmlns="http://www.w3.org/2000/svg" viewBox="0 0 64 64"><defs><style>.cls-1{fill:#23e7a5;}.cls-2{fill:#1e2525;}</style></defs><rect class="cls-1" width="64" height="64"/><path class="cls-2" d="M13.06,18.23v1l.27-1-.12.42.12-.42-.11.42.12-.42a4.26,4.26,0,0,1-.63-.22,9.77,9.77,0,0,1-1-.49,5.12,5.12,0,0,1-1.45-1.25,3,3,0,0,1-.45-.82,2.84,2.84,0,0,1-.17-1h-1v1H25.54L36.43,36h2.38L26.71,13.5h-19v1A4.88,4.88,0,0,0,7.91,16a5.1,5.1,0,0,0,1.24,2,7.81,7.81,0,0,0,2.37,1.66,8.17,8.17,0,0,0,1.27.5l.13,0H25.05l-1.07-2"/><path class="cls-2" d="M26.43,23.13H16.58v1l.27-.95-.12.44.12-.44-.12.44.12-.44s-.25-.08-.59-.23a8.06,8.06,0,0,1-1-.5,5.39,5.39,0,0,1-1.45-1.28,3.83,3.83,0,0,1-.49-.86,3.46,3.46,0,0,1-.17-1.06h-1v1H22.93v-2H11.19v1a5.51,5.51,0,0,0,.23,1.56,5.44,5.44,0,0,0,1.24,2.08A8,8,0,0,0,15,24.57a8.28,8.28,0,0,0,1.28.5l.13,0H27.5"/><path class="cls-2" d="M27.35,17.62h4.92L37.81,28,39.56,27,33.47,15.64H27.35Z"/><path class="cls-2" d="M33.93,28.78H47.11v6.58l4.29-1.68v7.18L47,39.19v6.25H20.6V28.93h8.88l-1.07-2H18.61V47.41l30.34,0V42.07l4.44,1.68v-13l-4.3,1.68V26.8H33.94Z"/></svg>
